<?xml version="1.0" encoding="utf-8"?>
<!-- Designed by Vexels.com - 2017 All Rights Reserved - https://vexels.com/terms-and-conditions/  -->

<svg version="1.1" id="Layer_1" xmlns="http://www.w3.org/2000/svg" xmlns:xlink="http://www.w3.org/1999/xlink" x="0px" y="0px"
	 width="1200px" height="1200px" viewBox="0 0 1200 1200" enable-background="new 0 0 1200 1200" xml:space="preserve">
<g>
	<path fill="#282727" d="M698.829,755.632h-74.595V588.777c0,0-3.927-121.061-69.354-124.996h-82.448v291.851h-74.596V444.157
		h153.761c0,0,135.461-9.812,146.579,145.926L698.829,755.632z"/>
	<path fill="#282727" d="M50,444.033h74.595v166.855c0,0,3.927,121.061,69.363,124.979h82.448V444.033h74.595v311.475H197.222
		c0,0-135.443,9.812-146.57-145.926L50,444.033z"/>
	<rect x="739.674" y="443.38" fill="#282727" width="75.257" height="313.433"/>
	<polygon fill="#282727" points="848.091,443.186 924.838,443.186 1021.281,576.477 1123.282,443.204 1149.789,443.204 
		1034.622,593.559 1150,756.426 1075.105,756.426 980.056,623.718 880.5,756.62 851.62,756.62 965.462,607.642 	"/>
</g>
</svg>
